<svg width="300" height="300" viewBox="0 0 300 300" fill="none" xmlns="http://www.w3.org/2000/svg">
<path fill-rule="evenodd" clip-rule="evenodd" d="M150 300C232.843 300 300 232.843 300 150C300 67.1573 232.843 0 150 0C67.1573 0 0 67.1573 0 150C0 232.843 67.1573 300 150 300ZM150 195C174.853 195 195 174.853 195 150C195 125.147 174.853 105 150 105C125.147 105 105 125.147 105 150C105 174.853 125.147 195 150 195ZM270.309 106.25C255.935 67.4182 222.824 37.6761 181.952 28L166 91.0429C186.003 95.445 202.263 109.828 209.292 128.705L270.309 106.25ZM118.357 273.705C77.4852 264.029 44.3741 234.287 30 195.456L91.017 173C98.0461 191.877 114.306 206.26 134.309 210.662L118.357 273.705Z" fill="white"/>
</svg>
